#!OML:ASF F:\VICON\USERDATA\INSTALL\rory3\rory3.ASF
:FULLY-SPECIFIED
:DEGREES
17
root 0.5647761372705795 17.879501579766593 -24.168285141652685 -1.4026688365765634 2.9063485760172094 1.8248869870832762
lfemur 7.077760280178849 0.39163554610554074 -26.685688157744057
ltibia 16.979609007903626
lfoot -15.963090248762846 -0.6291606967742545
ltoes -21.854683545787708
rfemur -29.253189071744806 1.3489024676731898 19.429812040572322
rtibia 22.933708083030105
rfoot -4.7301238129330585 -15.607780399108945
rtoes -0.40694448166206687
lowerback 11.01490010241749 -1.1597910391090556 -4.516866582814577
upperback 0.34168494829560003 -2.0267496985876017 1.4158050372639237
thorax -5.617081118012078 -0.8590948814331256 4.3554287540763115
lowerneck -16.671597754096748 -2.642148770606114 -2.023769355286402
upperneck 21.214402739067843 -3.201968552792491 0.2580023859752365
head 9.491422988041876 -1.6265790156862816 0.009987029767286965
lclavicle -2.700307982551058e-15 -2.1517147058997514e-15
lhumerus -21.475515289030103 1.0657147035924086 81.47029746449532
lradius 28.640894278840285
lwrist 10.441191640358598
lhand -29.742899328079886 22.470593214385296
lfingers 7.125020000000001
lthumb -3.069209327266992 52.42829321008941
rclavicle -2.700307982551058e-15 -2.1517147058997514e-15
rhumerus -35.755391982675334 -26.217889693349637 -73.34230845408742
rradius 21.892613304250858
rwrist 8.841566993965802
rhand -16.50801143523238 24.272292846845225
rfingers 7.125020000000001
rthumb 9.710038564300634 -5.483867414384713
18
root 0.5530935012599085 17.84460367084515 -23.807985295375257 -1.3779190111746165 2.9510784152022502 1.9198167160763506
lfemur 8.969389033303575 0.4375123405376393 -26.73938807219722
ltibia 15.858609657662804
lfoot -16.056890147290225 -0.23122132434322662
ltoes -24.872380001952152
rfemur -28.268289776528334 3.1937667580968156 18.616413368133358
rtibia 18.361910527588133
rfoot -6.94219118514443 -15.64798029029237
rtoes -6.685838262990597
lowerback 11.041999794522201 -1.193420816100131 -4.802295859607519
upperback 0.26076697261789505 -2.1054693732056715 1.4990339420927303
thorax -5.696649462224218 -0.8849166410987346 4.620627749195627
lowerneck -16.73449695640526 -2.7410063613728903 -1.9673303231869557
upperneck 21.189303058554575 -3.3135270703160513 0.09038277318614263
head 9.491412988359535 -1.6929365155330804 -0.0725327195104459
lclavicle -2.7003079283262374e-15 -2.1517146994785546e-15
lhumerus -21.29301560516285 0.6865063521383772 81.69719647454225
lradius 28.734294096311572
lwrist 10.098792591170318
lhand -30.787994007354712 22.74899264632898
lfingers 7.125020000000001
lthumb -4.078454006674864 52.68969267746092
rclavicle -2.7003079283262374e-15 -2.1517146994785546e-15
rhumerus -36.34709104426039 -26.655088944272503 -72.69301003102225
rradius 21.60331391213269
rwrist 9.327245744121244
rhand -16.544511144995933 24.398492307098735
rfingers 7.125020000000001
rthumb 9.67484885426604 -5.359287948692105
19
root 0.5395939218587227 17.814305486308765 -23.456185445471373 -1.4370285941850875 3.666705842342716 1.8983867772548941
lfemur 10.076288303686109 -0.37090303705921746 -26.626188252530568
ltibia 16.194109463198707
lfoot -15.680090554911587 -0.7295545384484767
ltoes -21.361084125446773
rfemur -26.98689069348402 4.973151251170526 17.799014702222877
rtibia 14.774312445890903
rfoot -10.232197276836438 -16.2147787560329
rtoes -9.164225018940405
lowerback 11.16619838343015 -1.4505691108742942 -4.884845650446806
upperback 0.16836628420283195 -2.4601079073336245 1.5898827466547523
thorax -5.816816961582929 -1.049818106288811 4.825076974505368
lowerneck -16.394701265714776 -2.7696756626806365 -2.292004755186393
upperneck 21.50719901214688 -3.3477166159787517 0.3786171719014264
head 9.552301054133492 -1.7039461007246606 0.0785878206116096
lclavicle -2.700307957231865e-15 -2.1517147041485145e-15
lhumerus -21.21091574737929 -0.3938238002130885 82.1171946421038
lradius 28.003095525272943
lwrist 8.875345988572784
lhand -32.832583598059244 15.78520685549049
lfingers 7.125020000000001
lthumb -6.052623599137999 45.678806962867036
rclavicle -2.700307957231865e-15 -2.1517147041485145e-15
rhumerus -36.915090143432785 -26.442389308702303 -72.53391041742353
rradius 21.78151353769597
rwrist 9.141106223132248
rhand -18.111798682322338 21.812303368052532
rfingers 7.125020000000001
rthumb 8.16248131626902 -8.01007657975625
20
root 0.516315647126857 17.769808152583714 -23.104885595354045 -1.2859096602561058 3.8182552974845434 1.6194575735464398
lfemur 10.57098797760262 -0.9470074556109775 -26.222988894848648
ltibia 17.353208791355883
lfoot -18.249087775773347 -0.14709745701048993
ltoes -23.903181140132013
rfemur -26.561890997609304 5.357290062318914 18.1612141110714
rtibia 13.73421300203617
rfoot -10.940896434949064 -15.304181220917688
rtoes -8.13956636015321
lowerback 11.023900000164442 -1.7635670352931627 -5.192824870103773
upperback -0.2395255115817367 -2.88546614914693 2.1138758516685074
thorax -6.078951506659841 -1.22412648392465 5.628743929284926
lowerneck -15.043918396424887 -2.4104644169266236 -2.8424453154121223
upperneck 21.01530527332318 -2.731554804016633 0.33652159562341644
head 9.13072444632198 -1.4713348648240767 0.25451074517660716
lclavicle -2.7003079598012357e-15 -2.151714720493381e-15
lhumerus -22.028514331104553 0.7797411926822835 82.37189353086076
lradius 28.475394602271777
lwrist 9.107625343553664
lhand -30.886293506898024 15.490607456601802
lfingers 7.125020000000001
lthumb -4.173293506694719 45.429507470840576
rclavicle -2.7003079598012357e-15 -2.151714720493381e-15
rhumerus -37.79938874096473 -25.82579036515466 -71.57881273704537
rradius 21.448214238031348
rwrist 9.404435545481197
rhand -17.8630006607012 22.11820205974468
rfingers 7.125020000000001
rthumb 8.402509338423124 -7.694697932379981
